<?xml version="1.0" encoding="UTF-8"?>
<svg version="1.1" xmlns="http://www.w3.org/2000/svg" width="335" height="339">
<path d="M0 0 C1.4988983 4.02541098 1.18070656 8.36325711 1.203125 12.60546875 C1.20882507 13.44410965 1.21452515 14.28275055 1.22039795 15.14680481 C1.22983289 16.92118068 1.23637594 18.69557395 1.24023438 20.4699707 C1.24990347 23.16063785 1.28092557 25.85052877 1.3125 28.54101562 C1.31903452 30.27082883 1.32428322 32.00064747 1.328125 33.73046875 C1.3404718 34.52454636 1.3528186 35.31862396 1.36553955 36.13676453 C1.33384385 44.23964202 -0.79920835 51.67122208 -6 58 C-8.79920338 60.47515408 -11.75139928 62.710598 -14.75 64.9375 C-20.0623011 68.93500658 -25.23968059 72.97536229 -30.18457031 77.42407227 C-35.45592564 82 -35.45592564 82 -39 82 C-39.0928125 82.86625 -39.0928125 82.86625 -39.1875 83.75 C-40.3187079 86.88257571 -42.37947801 88.03460851 -45 90 C-45.33 90.66 -45.66 91.32 -46 92 C-46.99 92 -47.98 92 -49 92 C-49.23203125 92.70640625 -49.4640625 93.4128125 -49.703125 94.140625 C-51.2564642 97.56545721 -53.27829095 99.91876963 -55.75 102.75 C-61.14047795 109.04375248 -66.06599226 115.18956273 -69 123 C-69.66 123 -70.32 123 -71 123 C-71.15855469 123.6084375 -71.31710938 124.216875 -71.48046875 124.84375 C-72.6514327 129.24295157 -73.85649429 133.61584902 -75.27734375 137.94140625 C-75.49946533 138.62332031 -75.72158691 139.30523437 -75.95043945 140.0078125 C-76.38697801 141.33749345 -76.83161297 142.66455509 -77.28588867 143.98828125 C-84.81205695 167.01431962 -80.96040715 197.30141132 -71 219 C-69.71853334 221.36929718 -68.37415015 223.68204911 -67 226 C-59.05728754 217.14685805 -51.60206052 208.20446107 -50 196 C-49.01 196 -48.02 196 -47 196 C-46.90912109 194.85724609 -46.90912109 194.85724609 -46.81640625 193.69140625 C-46.73261719 192.65886719 -46.64882812 191.62632812 -46.5625 190.5625 C-46.48128906 189.55316406 -46.40007812 188.54382813 -46.31640625 187.50390625 C-46.08497954 184.94106975 -45.80374012 182.40745015 -45.48828125 179.85546875 C-44.9639133 175.23158534 -44.82722808 170.62900496 -44.71044922 165.97924805 C-44.20147219 146.74427915 -41.52541443 130.98848277 -27 117 C-9.39279279 101.39969331 -9.39279279 101.39969331 0 101 C1.0500915 107.91082264 1.17743704 114.70427022 1.203125 121.6875 C1.20882507 122.9034082 1.21452515 124.11931641 1.22039795 125.37207031 C1.22981682 127.94058369 1.23636951 130.50910898 1.24023438 133.07763672 C1.24989924 136.95953124 1.28093689 140.84088663 1.3125 144.72265625 C1.43723874 173.95561019 -3.44768295 192.8916294 -24 214 C-24.65742188 214.69480469 -25.31484375 215.38960937 -25.9921875 216.10546875 C-34.16550173 224.04266501 -46.67210927 229.97416018 -58 231 C-59.5159375 231.2165625 -59.5159375 231.2165625 -61.0625 231.4375 C-72.36197128 229.75460002 -82.29161223 218.88140964 -88.92578125 210.2421875 C-107.76953884 180.78772649 -114.33147502 143.25968428 -108 109 C-107.13503877 105.29814522 -106.05228161 101.67417036 -104.90234375 98.05078125 C-104.01205225 95.04074808 -103.45130421 92.10329803 -103 89 C-102.01 89 -101.02 89 -100 89 C-99.9071875 88.15695313 -99.814375 87.31390625 -99.71875 86.4453125 C-98.9028616 82.53436919 -97.40010042 79.34563309 -95.5 75.875 C-95.14397705 75.21975342 -94.7879541 74.56450684 -94.42114258 73.8894043 C-86.22517972 59.1816784 -73.62339762 44.12205711 -60 34 C-57.1796875 33.23046875 -57.1796875 33.23046875 -55 33 C-54.8983252 32.39115967 -54.79665039 31.78231934 -54.69189453 31.1550293 C-53.50384064 27.45462292 -49.99498701 25.85497502 -46.875 23.8125 C-45.79400024 23.08957764 -45.79400024 23.08957764 -44.69116211 22.35205078 C-7.30041018 -2.43347006 -7.30041018 -2.43347006 0 0 Z " fill="#FEFDFE" transform="translate(252,55)"/>
<path d="M0 0 C5.71621458 0.28474294 9.35738535 2.11063595 13.8125 5.5 C14.41779541 5.94706299 15.02309082 6.39412598 15.64672852 6.85473633 C21.0625616 10.91499907 26.11023038 15.32054305 31 20 C31.65742187 20.60585937 32.31484375 21.21171875 32.9921875 21.8359375 C41.99929289 30.37915763 46.98925622 41.13561686 47.50390625 53.62890625 C47.53774637 55.93993895 47.55688232 58.25122639 47.5625 60.5625 C48.01819134 83.65492548 50.95495378 108.49455181 67.5 126.125 C68.1703125 126.76695312 68.840625 127.40890625 69.53125 128.0703125 C71.40323379 130.52978057 71.36611698 131.97953492 71 135 C69.27999371 136.72000629 67.10071899 136.25403971 64.75 136.3125 C45.95533929 136.09007798 29.63030575 124.96886491 16.875 112 C2.89561252 96.13328549 -2.17585818 75.49463637 -2.1328125 54.8671875 C-2.13376923 53.83167755 -2.13472595 52.7961676 -2.13571167 51.72927856 C-2.13638823 49.54933613 -2.13457074 47.36939162 -2.13037109 45.18945312 C-2.12504845 41.9049002 -2.13031708 38.62048606 -2.13671875 35.3359375 C-2.14546918 10.99731081 -2.14546918 10.99731081 -1 1 C-0.67 0.67 -0.34 0.34 0 0 Z " fill="#FDFDFD" transform="translate(88,148)"/>
<path d="M0 0 C1.65 0 3.3 0 5 0 C5 0.66 5 1.32 5 2 C6.010625 2.061875 7.02125 2.12375 8.0625 2.1875 C20.18835583 3.74867721 31.35191139 9.30680008 42 15 C42 15.99 42 16.98 42 18 C42.66 18.20625 43.32 18.4125 44 18.625 C57.96269826 25.02457004 67.46519417 38.3792294 73.375 52.125 C76.34264532 60.30890295 77.21385285 68.7501659 77.9375 77.375 C78.01959717 78.1484375 78.10169434 78.921875 78.1862793 79.71875 C78.47345866 83.91184259 78.36803871 85.48647306 75.8359375 89.01953125 C72.71699798 91.19763364 71.41973999 91.561316 67.6875 91.3125 C66.80449219 91.26738281 65.92148438 91.22226563 65.01171875 91.17578125 C64.34785156 91.11777344 63.68398437 91.05976563 63 91 C62.78085938 90.03320312 62.56171875 89.06640625 62.3359375 88.0703125 C60.00539865 78.30968913 56.91588867 70.3056074 50.125 62.6875 C48 60 48 60 47.6875 57.125 C47.790625 56.42375 47.89375 55.7225 48 55 C46.68 55 45.36 55 44 55 C44 54.01 44 53.02 44 52 C43.16597656 51.76667969 42.33195312 51.53335938 41.47265625 51.29296875 C37.38789886 49.77209732 34.06916784 47.68791941 30.4375 45.3125 C24.36450372 41.40425463 18.26569121 37.93448352 11.76953125 34.765625 C6.72478924 31.54951303 4.10700802 28.25465456 2.63671875 22.5390625 C2.3017099 20.90474483 1.98559391 19.26645216 1.6875 17.625 C1.51927734 16.81289062 1.35105469 16.00078125 1.17773438 15.1640625 C0.16894131 10.02539416 -0.16239486 5.23272319 0 0 Z " fill="#FEFEFE" transform="translate(68,70)"/>
<path d="M0 0 C3.93639176 1.31213059 4.28653597 2.82801522 6.1875 6.4375 C6.71730469 7.42621094 7.24710937 8.41492188 7.79296875 9.43359375 C9 12 9 12 9 14 C9.66 14 10.32 14 11 14 C12.62109375 15.6796875 12.62109375 15.6796875 14.4375 17.875 C16.58400884 20.46193722 18.16776562 22.11184374 21 24 C21.33 24.99 21.66 25.98 22 27 C23.32848691 28.00642948 24.66150329 29.00692179 26 30 C26 30.66 26 31.32 26 32 C17.04308375 30.50718063 12.35704233 24.07128938 7.25 17 C0 6.21624714 0 6.21624714 0 0 Z " fill="#F2F2F2" transform="translate(93,237)"/>
<path d="M0 0 C7.36124003 0 12.7446887 4.08458445 18 9 C19.32421875 11.765625 19.32421875 11.765625 20 14 C15.16781829 12.28284971 11.56954116 9.61710828 7.5 6.55859375 C4.92584187 4.95376704 2.98457579 4.38906077 0 4 C0 2.68 0 1.36 0 0 Z " fill="#D8D8DB" transform="translate(88,148)"/>
<path d="M0 0 C1.83203125 0.203125 1.83203125 0.203125 4 1 C5.44921875 3.109375 5.44921875 3.109375 6.6875 5.75 C7.10386719 6.61109375 7.52023438 7.4721875 7.94921875 8.359375 C8.96568708 10.91377125 9.55692304 13.29284848 10 16 C9.34 16.33 8.68 16.66 8 17 C8 16.34 8 15.68 8 15 C7.01 15 6.02 15 5 15 C4.15733289 13.25447527 3.32619962 11.5033792 2.5 9.75 C2.0359375 8.77546875 1.571875 7.8009375 1.09375 6.796875 C0 4 0 4 0 0 Z " fill="#E5E5E5" transform="translate(139,253)"/>
<path d="M0 0 C4.03625076 1.34541692 4.85447953 3.85947465 6.6875 7.4375 C7.00783203 8.03626953 7.32816406 8.63503906 7.65820312 9.25195312 C10 13.71085421 10 13.71085421 10 16 C6.8793147 15.06641683 5.32426266 14.45957226 3.41796875 11.7578125 C3.01191406 10.88898438 2.60585937 10.02015625 2.1875 9.125 C1.76855469 8.26132813 1.34960938 7.39765625 0.91796875 6.5078125 C0 4 0 4 0 0 Z " fill="#E1E1E1" transform="translate(93,237)"/>
<path d="M0 0 C-0.33 1.32 -0.66 2.64 -1 4 C-4.96 4 -8.92 4 -13 4 C-13.33 3.34 -13.66 2.68 -14 2 C-12.23225581 1.46877637 -10.46065917 0.95035927 -8.6875 0.4375 C-7.70136719 0.14746094 -6.71523437 -0.14257812 -5.69921875 -0.44140625 C-3 -1 -3 -1 0 0 Z " fill="#F2F2F4" transform="translate(159,280)"/>
<path d="M0 0 C0.99 0.33 1.98 0.66 3 1 C4.62323754 4.75907641 5.23994929 7.92086213 5 12 C4.01 11.67 3.02 11.34 2 11 C0.37676246 7.24092359 -0.23994929 4.07913787 0 0 Z " fill="#EBEBEB" transform="translate(134,239)"/>
<path d="M0 0 C5.62541841 0.45003347 8.61487125 1.68441485 13 5 C8.87337313 7.06331344 5.17669362 5.26088864 1 4 C0.67 2.68 0.34 1.36 0 0 Z " fill="#E7E7E8" transform="translate(88,148)"/>
<path d="M0 0 C0.66 0.33 1.32 0.66 2 1 C2 1.66 2 2.32 2 3 C2.99 3 3.98 3 5 3 C5.33 4.65 5.66 6.3 6 8 C5.01 8.495 5.01 8.495 4 9 C4 8.34 4 7.68 4 7 C3.01 7 2.02 7 1 7 C-0.0625 4.625 -0.0625 4.625 -1 2 C-0.67 1.34 -0.34 0.68 0 0 Z " fill="#EFEFF1" transform="translate(143,261)"/>
</svg>
