<?xml version="1.0" encoding="UTF-8"?>
<svg version="1.1" xmlns="http://www.w3.org/2000/svg" width="335" height="339">
<path d="M0 0 C1.4540625 0.0309375 1.4540625 0.0309375 2.9375 0.0625 C3.065101 6.43028167 3.15218406 12.7977293 3.2121582 19.16650391 C3.23718039 21.32938965 3.27120909 23.49219189 3.31469727 25.65478516 C3.37589207 28.77787981 3.40383343 31.89984913 3.42578125 35.0234375 C3.45158768 35.97801849 3.4773941 36.93259949 3.50398254 37.91610718 C3.50686824 44.94742146 1.765193 50.14957159 -2.0625 56.0625 C-4.08779414 58.08779414 -5.75232589 59.46028247 -8.0625 61.0625 C-10.08583608 62.58000206 -12.10642342 64.10117258 -14.125 65.625 C-15.12660156 66.36878906 -16.12820312 67.11257812 -17.16015625 67.87890625 C-22.30814228 71.74109635 -22.30814228 71.74109635 -27.0625 76.0625 C-28.21904544 77.11539278 -29.3866851 78.15617083 -30.5625 79.1875 C-31.47515625 79.99574219 -31.47515625 79.99574219 -32.40625 80.8203125 C-34.0625 82.0625 -34.0625 82.0625 -36.0625 82.0625 C-36.5575 83.5475 -36.5575 83.5475 -37.0625 85.0625 C-38.71252828 86.41636936 -40.3799387 87.74928142 -42.0625 89.0625 C-42.7225 90.0525 -43.3825 91.0425 -44.0625 92.0625 C-44.7225 92.0625 -45.3825 92.0625 -46.0625 92.0625 C-46.3203125 92.64386719 -46.578125 93.22523438 -46.84375 93.82421875 C-48.16464491 96.25009306 -49.6491152 97.88711866 -51.5625 99.875 C-55.29936331 103.98967118 -58.46981517 108.33331523 -61.5625 112.9375 C-62.00787109 113.59210205 -62.45324219 114.2467041 -62.91210938 114.92114258 C-65.447747 118.66710583 -65.447747 118.66710583 -66.0625 123.0625 C-66.7225 123.0625 -67.3825 123.0625 -68.0625 123.0625 C-69.69583351 126.95737222 -71.02330313 130.92052359 -72.33984375 134.9296875 C-72.88342766 136.5339946 -73.48946237 138.11734821 -74.125 139.6875 C-78.19755521 150.00463986 -78.22448921 160.38835294 -78.1875 171.3125 C-78.19136719 172.47007812 -78.19523437 173.62765625 -78.19921875 174.8203125 C-78.19728516 176.49480469 -78.19728516 176.49480469 -78.1953125 178.203125 C-78.19418457 179.20891602 -78.19305664 180.21470703 -78.19189453 181.25097656 C-78.06717134 183.96099975 -77.64647513 186.41865944 -77.0625 189.0625 C-76.96689465 190.49923599 -76.88402364 191.93686403 -76.8125 193.375 C-75.82415674 203.70627565 -72.01499136 214.06757126 -67.078125 223.14453125 C-66.0625 225.0625 -66.0625 225.0625 -65.0625 228.0625 C-67.99300271 226.71989083 -70.27163591 225.19101462 -72.6875 223.0625 C-73.27789062 222.546875 -73.86828125 222.03125 -74.4765625 221.5 C-81.24045789 215.36917856 -89.18263355 205.70209934 -92.0625 197.0625 C-92.99017251 195.07870801 -93.92927452 193.10024942 -94.875 191.125 C-103.28840994 172.92949141 -106.23880262 154.64773793 -106.25 134.75 C-106.26224609 133.61626953 -106.27449219 132.48253906 -106.28710938 131.31445312 C-106.30589985 120.32202512 -105.03973553 109.84628521 -101.4375 99.4375 C-99.65685343 94.37011802 -99.65685343 94.37011802 -99.0625 89.0625 C-98.4025 89.0625 -97.7425 89.0625 -97.0625 89.0625 C-96.835625 88.258125 -96.60875 87.45375 -96.375 86.625 C-89.00402963 66.61808041 -71.20170976 45.64865404 -54.0625 33.0625 C-53.4025 33.0625 -52.7425 33.0625 -52.0625 33.0625 C-51.7325 32.0725 -51.4025 31.0825 -51.0625 30.0625 C-49.3046875 28.58984375 -49.3046875 28.58984375 -46.9375 27 C-46.03128906 26.38898438 -45.12507813 25.77796875 -44.19140625 25.1484375 C-43.15886719 24.46007812 -42.12632812 23.77171875 -41.0625 23.0625 C-39.90398385 22.26441849 -38.74647152 21.46487831 -37.58984375 20.6640625 C-30.13126881 15.54237529 -22.547723 10.98605913 -14.5 6.8515625 C-1.38992788 0.02836588 -1.38992788 0.02836588 0 0 Z " fill="#010101" transform="translate(249.0625,54.9375)"/>
<path d="M0 0 C4.64479163 0.53329089 7.47731286 2.4367326 11.25 5.125 C11.82065186 5.53097412 12.39130371 5.93694824 12.97924805 6.35522461 C14.66111365 7.55919339 16.33215398 8.77670758 18 10 C18.84691406 10.61746094 19.69382812 11.23492187 20.56640625 11.87109375 C32.93754896 21.18710208 41.8073611 31.86029103 46 47 C46.81869429 52.81359158 46.705634 58.70396766 46.6875 64.5625 C46.78607189 89.58111211 51.36458356 111.67928709 69.53125 130.1953125 C71 132 71 132 71 135 C57.76684523 137.08351798 48.42146654 133.32428313 37 127 C36.20722656 126.57074219 35.41445312 126.14148438 34.59765625 125.69921875 C16.41031498 114.75971925 6.18563289 96.69128808 0 77 C-0.80935913 72.91056487 -1.12620878 69.04303957 -1.12939453 64.87792969 C-1.13254669 63.68939392 -1.13569885 62.50085815 -1.13894653 61.27630615 C-1.1369223 60.00434387 -1.13489807 58.73238159 -1.1328125 57.421875 C-1.13348734 56.08677147 -1.13445887 54.75166806 -1.13571167 53.41656494 C-1.13718219 50.62258735 -1.13505624 47.82864182 -1.13037109 45.03466797 C-1.1246964 41.47997839 -1.12794254 37.9253647 -1.13394356 34.37067795 C-1.13758564 31.61319423 -1.13639359 28.855728 -1.13381577 26.09824371 C-1.13283736 24.1586553 -1.13584005 22.21906616 -1.13894653 20.27947998 C-1.12104154 13.45670417 -0.85703094 6.77146074 0 0 Z " fill="#010101" transform="translate(88,148)"/>
<path d="M0 0 C0.09330033 8.88500547 0.16406578 17.76983841 0.20724869 26.65522957 C0.22799013 30.782538 0.25605654 34.90950759 0.30175781 39.03662109 C0.34570234 43.03077323 0.36923773 47.02460261 0.37950897 51.01897812 C0.38681431 52.53139186 0.40107558 54.04379098 0.42292023 55.55606461 C0.63645332 70.97305178 -2.16304161 88.20683939 -13 100 C-13.50273437 100.59039062 -14.00546875 101.18078125 -14.5234375 101.7890625 C-16.31648629 103.89041832 -18.1502049 105.94847827 -20 108 C-20.58523437 108.66386719 -21.17046875 109.32773437 -21.7734375 110.01171875 C-30.94457267 119.86004745 -44.65905504 128.1899325 -58.3515625 129.16796875 C-59.10179687 129.17441406 -59.85203125 129.18085938 -60.625 129.1875 C-61.38039062 129.20167969 -62.13578125 129.21585938 -62.9140625 129.23046875 C-65 129 -65 129 -68 127 C-67.50371094 126.47792969 -67.00742188 125.95585937 -66.49609375 125.41796875 C-59.39662576 117.7257558 -49 106.12008171 -49 95 C-48.34 95 -47.68 95 -47 95 C-46.68575214 93.31282461 -46.37369845 91.62524051 -46.0625 89.9375 C-45.88847656 88.99777344 -45.71445313 88.05804688 -45.53515625 87.08984375 C-44.49749355 81.09866715 -43.85441166 75.27566858 -43.7890625 69.1953125 C-43.76099631 67.70962435 -43.73233186 66.22394741 -43.703125 64.73828125 C-43.66197582 62.43245744 -43.6250211 60.12684347 -43.59863281 57.82080078 C-43.38983953 40.96974318 -39.74819737 31.110443 -28.0625 18.5625 C-22.02370911 12.70412993 -8.638096 0 0 0 Z " fill="#010101" transform="translate(252,156)"/>
<path d="M0 0 C0 0.66 0 1.32 0 2 C0.57105469 2.08636719 1.14210938 2.17273438 1.73046875 2.26171875 C14.41197777 4.45930934 25.68792508 10.1150075 37 16 C37 16.66 37 17.32 37 18 C37.57492188 18.26941406 38.14984375 18.53882812 38.7421875 18.81640625 C54.03862842 26.83512874 63.5707161 41.35808552 69.125 57.2109375 C70.91593847 63.9097362 71.42812765 70.72829056 71.875 77.625 C71.96769165 78.94226074 71.96769165 78.94226074 72.06225586 80.28613281 C72.1010083 81.11209961 72.13976074 81.93806641 72.1796875 82.7890625 C72.23745361 83.89822021 72.23745361 83.89822021 72.29638672 85.02978516 C71.90995012 87.59860178 71.03007818 88.43304377 69 90 C66.51953125 90.51171875 66.51953125 90.51171875 63.8125 90.6875 C62.91144531 90.75324219 62.01039063 90.81898438 61.08203125 90.88671875 C60.05142578 90.94279297 60.05142578 90.94279297 59 91 C58.79246094 90.06800781 58.58492187 89.13601562 58.37109375 88.17578125 C54.71788579 72.89981666 54.71788579 72.89981666 45.27734375 60.88671875 C44.52582031 60.26410156 43.77429688 59.64148438 43 59 C43 57.68 43 56.36 43 55 C41.68 54.67 40.36 54.34 39 54 C39 53.34 39 52.68 39 52 C38.46761719 51.75378906 37.93523437 51.50757813 37.38671875 51.25390625 C34.39232484 49.68074677 31.62551816 47.80752229 28.8125 45.9375 C22.66057899 41.88700235 16.30690114 38.41032312 9.68676758 35.18334961 C4.51095002 32.57559724 1.12452475 30.01822442 -0.9765625 24.37890625 C-2.75937474 16.63548682 -4.00872315 8.88356649 -5 1 C-3 0 -3 0 0 0 Z " fill="#010101" transform="translate(73,70)"/>
<path d="M0 0 C4.67414882 0.77281248 7.86454313 2.60655657 11.6875 5.3125 C12.26822266 5.70373047 12.84894531 6.09496094 13.44726562 6.49804688 C16.54679667 8.65876042 18.71741994 10.38395171 20 14 C14.98722799 11.33525845 10.33907571 8.70097634 6 5 C5.01 4.34 4.02 3.68 3 3 C2.67 25.44 2.34 47.88 2 71 C1.67 71 1.34 71 1 71 C0.11384004 55.02913958 -0.12558703 39.11815668 -0.0625 23.125 C-0.05746603 20.86458434 -0.05290653 18.60416758 -0.04882812 16.34375 C-0.03799332 10.89580846 -0.021411 5.44790973 0 0 Z " fill="#0F0F0F" transform="translate(88,148)"/>
<path d="M0 0 C2.26362659 2.07233421 3.57055789 3.8917125 4.8125 6.6875 C8.18827545 13.65643038 12.56371136 19.03421789 18.6796875 23.7734375 C19.11539063 24.17820312 19.55109375 24.58296875 20 25 C20 25.66 20 26.32 20 27 C20.639375 27.268125 21.27875 27.53625 21.9375 27.8125 C24 29 24 29 25 32 C20.44930551 31.13037428 17.93219607 28.50671482 14.75 25.3125 C13.89100098 24.45422607 13.89100098 24.45422607 13.01464844 23.57861328 C6.80908939 17.130076 1.84556152 9.53668455 -1 1 C-0.67 0.67 -0.34 0.34 0 0 Z " fill="#0E0E0E" transform="translate(94,237)"/>
<path d="M0 0 C4.89460714 0.97892143 7.74107474 2.51916388 11.6875 5.3125 C12.26822266 5.70373047 12.84894531 6.09496094 13.44726562 6.49804688 C16.54679667 8.65876042 18.71741994 10.38395171 20 14 C14.98722799 11.33525845 10.33907571 8.70097634 6 5 C5.01 4.34 4.02 3.68 3 3 C2.67 7.62 2.34 12.24 2 17 C1.34 16.67 0.68 16.34 0 16 C0 10.72 0 5.44 0 0 Z " fill="#131312" transform="translate(88,148)"/>
<path d="M0 0 C6.03800218 0.75475027 9.47120848 6.52114922 13 11 C17.27470668 17.52280371 17.27470668 17.52280371 16.5859375 21.2265625 C16.39257812 21.81179687 16.19921875 22.39703125 16 23 C15.57589844 22.2265625 15.15179688 21.453125 14.71484375 20.65625 C9.0211665 9.8330485 9.0211665 9.8330485 0 2 C0 1.34 0 0.68 0 0 Z " fill="#0F1010" transform="translate(114,167)"/>
<path d="M0 0 C3 1 3 1 4.82421875 4.0546875 C5.45571529 5.32299844 6.07642765 6.59672339 6.6875 7.875 C7.00783203 8.51308594 7.32816406 9.15117187 7.65820312 9.80859375 C9.08290944 12.71876144 10 14.71997964 10 18 C9.67 17.34 9.34 16.68 9 16 C8.34 16 7.68 16 7 16 C6.01246936 14.27559635 5.03531194 12.54524974 4.0625 10.8125 C3.24458984 9.36810547 3.24458984 9.36810547 2.41015625 7.89453125 C1.09420667 5.19337158 0.42698113 2.95643899 0 0 Z " fill="#1B1B1B" transform="translate(138,252)"/>
<path d="M0 0 C0.99 0.33 1.98 0.66 3 1 C3 1.99 3 2.98 3 4 C-7.55808656 5.51708428 -7.55808656 5.51708428 -12 3 C-9.42453318 2.27886929 -6.97649864 1.86122016 -4.3125 1.5 C-1.16174185 1.35962484 -1.16174185 1.35962484 0 0 Z " fill="#0D0D0B" transform="translate(156,279)"/>
<path d="M0 0 C2.30062735 2.11054703 3.712578 4.06585058 5.0625 6.875 C5.39894531 7.57367188 5.73539062 8.27234375 6.08203125 8.9921875 C7.13668879 11.29897038 8.10936902 13.62498404 9 16 C8.34 16 7.68 16 7 16 C5.5625 13.98828125 5.5625 13.98828125 4 11.3125 C3.484375 10.44238281 2.96875 9.57226562 2.4375 8.67578125 C1.08785157 6.16352805 -0.00011557 3.66796085 -1 1 C-0.67 0.67 -0.34 0.34 0 0 Z " fill="#222222" transform="translate(94,237)"/>
<path d="M0 0 C0.33 0 0.66 0 1 0 C1.95261487 4.76307437 2.08333357 9.1666528 2 14 C1.01 14.495 1.01 14.495 0 15 C-1.03876383 11.88370851 -1.13361625 9.6405571 -1.125 6.375 C-1.12757813 5.39273438 -1.13015625 4.41046875 -1.1328125 3.3984375 C-1 1 -1 1 0 0 Z " fill="#0C0C0B" transform="translate(133,224)"/>
<path d="M0 0 C3.70503641 0.60334309 5.85968148 2.22474237 8.75 4.5625 C9.94882813 5.52349609 9.94882813 5.52349609 11.171875 6.50390625 C12.07679687 7.24447266 12.07679687 7.24447266 13 8 C12.67 8.66 12.34 9.32 12 10 C10.37042688 8.90259375 8.74648772 7.79681808 7.125 6.6875 C5.76761719 5.76517578 5.76761719 5.76517578 4.3828125 4.82421875 C2 3 2 3 0 0 Z " fill="#2D2D2A" transform="translate(95,152)"/>
<path d="M0 0 C3.33773709 3.64116773 3.97864902 7.28607242 5 12 C4.01 12.495 4.01 12.495 3 13 C-0.42857143 4.57142857 -0.42857143 4.57142857 0 0 Z " fill="#0E0E0D" transform="translate(90,225)"/>
<path d="M0 0 C0.66 0 1.32 0 2 0 C2.50559908 1.43554025 3.0042749 2.8735202 3.5 4.3125 C3.7784375 5.11300781 4.056875 5.91351563 4.34375 6.73828125 C5 9 5 9 5 12 C4.34 12 3.68 12 3 12 C2.49440092 10.56445975 1.9957251 9.1264798 1.5 7.6875 C1.2215625 6.88699219 0.943125 6.08648437 0.65625 5.26171875 C0 3 0 3 0 0 Z " fill="#161616" transform="translate(134,239)"/>
<path d="M0 0 C0.99 0 1.98 0 3 0 C2.67 4.62 2.34 9.24 2 14 C1.67 14 1.34 14 1 14 C1 10.37 1 6.74 1 3 C0.34 3 -0.32 3 -1 3 C-0.67 2.01 -0.34 1.02 0 0 Z " fill="#080907" transform="translate(249,156)"/>
<path d="M0 0 C2.40072955 2.88087546 4.47291037 5.56404834 6 9 C5.01 9.495 5.01 9.495 4 10 C4 9.34 4 8.68 4 8 C3.34 8 2.68 8 2 8 C0.23537317 4.91190305 0 3.76687864 0 0 Z " fill="#10100E" transform="translate(143,260)"/>
<path d="M0 0 C2.83374881 3.20336822 3.5205537 5.78087253 4 10 C0.92436109 8.46218054 0.29677426 6.08755777 -1 3 C-0.67 2.01 -0.34 1.02 0 0 Z " fill="#0C0C0C" transform="translate(127,180)"/>
<path d="M0 0 C3.68754757 0.49831724 5.60490662 1.10067643 8 4 C7.01 4.495 7.01 4.495 6 5 C5.01 4.34 4.02 3.68 3 3 C2.01 3 1.02 3 0 3 C0 2.01 0 1.02 0 0 Z " fill="#1C1C1B" transform="translate(88,148)"/>
<path d="" fill="#000000" transform="translate(0,0)"/>
<path d="" fill="#000000" transform="translate(0,0)"/>
<path d="" fill="#000000" transform="translate(0,0)"/>
<path d="" fill="#000000" transform="translate(0,0)"/>
<path d="" fill="#000000" transform="translate(0,0)"/>
<path d="" fill="#000000" transform="translate(0,0)"/>
<path d="" fill="#000000" transform="translate(0,0)"/>
<path d="" fill="#000000" transform="translate(0,0)"/>
</svg>
